999
DXF created by UltiBoard 8, 0, 0, 0
0
SECTION
2
HEADER
9
$EXTMIN
10
-362.000000
20
-362.000000
9
$EXTMAX
10
4362.000000
20
3862.000000
9
$LUNITS
70
2
0
ENDSEC
0
SECTION
2
TABLES
0
TABLE
2
LAYER
70
1
0
LAYER
2
BOARD_OUTLINE
70
0
62
2
6
CONTINUOUS
0
ENDTAB
0
TABLE
2
VIEW
70
0
0
ENDTAB
0
ENDSEC
0
SECTION
2
BLOCKS
0
ENDSEC
0
SECTION
2
ENTITIES
0
POLYLINE
8
BOARD_OUTLINE
39
0.000000
40
0.000039
41
0.000039
66
1
62
2
10
0
20
0
30
0
70
0
0
VERTEX
8
BOARD_OUTLINE
10
0.000000
20
3000.000000
30
0.000000
0
VERTEX
8
BOARD_OUTLINE
10
500.000000
20
3500.000000
30
0.000000
0
SEQEND
0
POLYLINE
8
BOARD_OUTLINE
39
0.000000
40
0.000039
41
0.000039
66
1
62
2
10
0
20
0
30
0
70
0
0
VERTEX
8
BOARD_OUTLINE
10
500.000000
20
3500.000000
30
0.000000
0
VERTEX
8
BOARD_OUTLINE
10
3500.000000
20
3500.000000
30
0.000000
0
SEQEND
0
POLYLINE
8
BOARD_OUTLINE
39
0.000000
40
0.000039
41
0.000039
66
1
62
2
10
0
20
0
30
0
70
0
0
VERTEX
8
BOARD_OUTLINE
10
3500.000000
20
3500.000000
30
0.000000
0
VERTEX
8
BOARD_OUTLINE
10
4000.000000
20
3000.000000
30
0.000000
0
SEQEND
0
POLYLINE
8
BOARD_OUTLINE
39
0.000000
40
0.000039
41
0.000039
66
1
62
2
10
0
20
0
30
0
70
0
0
VERTEX
8
BOARD_OUTLINE
10
4000.000000
20
3000.000000
30
0.000000
0
VERTEX
8
BOARD_OUTLINE
10
4000.000000
20
0.000000
30
0.000000
0
SEQEND
0
POLYLINE
8
BOARD_OUTLINE
39
0.000000
40
0.000039
41
0.000039
66
1
62
2
10
0
20
0
30
0
70
0
0
VERTEX
8
BOARD_OUTLINE
10
4000.000000
20
0.000000
30
0.000000
0
VERTEX
8
BOARD_OUTLINE
10
3500.000000
20
0.000000
30
0.000000
0
SEQEND
0
POLYLINE
8
BOARD_OUTLINE
39
0.000000
40
0.000039
41
0.000039
66
1
62
2
10
0
20
0
30
0
70
0
0
VERTEX
8
BOARD_OUTLINE
10
3500.000000
20
0.000000
30
0.000000
0
VERTEX
8
BOARD_OUTLINE
10
3500.000000
20
500.000000
30
0.000000
0
SEQEND
0
POLYLINE
8
BOARD_OUTLINE
39
0.000000
40
0.000039
41
0.000039
66
1
62
2
10
0
20
0
30
0
70
0
0
VERTEX
8
BOARD_OUTLINE
10
3500.000000
20
500.000000
30
0.000000
0
VERTEX
8
BOARD_OUTLINE
10
3000.000000
20
500.000000
30
0.000000
0
SEQEND
0
POLYLINE
8
BOARD_OUTLINE
39
0.000000
40
0.000039
41
0.000039
66
1
62
2
10
0
20
0
30
0
70
0
0
VERTEX
8
BOARD_OUTLINE
10
3000.000000
20
500.000000
30
0.000000
0
VERTEX
8
BOARD_OUTLINE
10
3000.000000
20
0.000000
30
0.000000
0
SEQEND
0
POLYLINE
8
BOARD_OUTLINE
39
0.000000
40
0.000039
41
0.000039
66
1
62
2
10
0
20
0
30
0
70
0
0
VERTEX
8
BOARD_OUTLINE
10
3000.000000
20
0.000000
30
0.000000
0
VERTEX
8
BOARD_OUTLINE
10
1000.000000
20
0.000000
30
0.000000
0
SEQEND
0
POLYLINE
8
BOARD_OUTLINE
39
0.000000
40
0.000039
41
0.000039
66
1
62
2
10
0
20
0
30
0
70
0
0
VERTEX
8
BOARD_OUTLINE
10
1000.000000
20
0.000000
30
0.000000
0
VERTEX
8
BOARD_OUTLINE
10
1000.000000
20
500.000000
30
0.000000
0
SEQEND
0
POLYLINE
8
BOARD_OUTLINE
39
0.000000
40
0.000039
41
0.000039
66
1
62
2
10
0
20
0
30
0
70
0
0
VERTEX
8
BOARD_OUTLINE
10
1000.000000
20
500.000000
30
0.000000
0
VERTEX
8
BOARD_OUTLINE
10
500.000000
20
500.000000
30
0.000000
0
SEQEND
0
POLYLINE
8
BOARD_OUTLINE
39
0.000000
40
0.000039
41
0.000039
66
1
62
2
10
0
20
0
30
0
70
0
0
VERTEX
8
BOARD_OUTLINE
10
500.000000
20
500.000000
30
0.000000
0
VERTEX
8
BOARD_OUTLINE
10
500.000000
20
0.000000
30
0.000000
0
SEQEND
0
POLYLINE
8
BOARD_OUTLINE
39
0.000000
40
0.000039
41
0.000039
66
1
62
2
10
0
20
0
30
0
70
0
0
VERTEX
8
BOARD_OUTLINE
10
500.000000
20
0.000000
30
0.000000
0
VERTEX
8
BOARD_OUTLINE
10
0.000000
20
0.000000
30
0.000000
0
SEQEND
0
POLYLINE
8
BOARD_OUTLINE
39
0.000000
40
0.000039
41
0.000039
66
1
62
2
10
0
20
0
30
0
70
0
0
VERTEX
8
BOARD_OUTLINE
10
0.000000
20
0.000000
30
0.000000
0
VERTEX
8
BOARD_OUTLINE
10
0.000000
20
3000.000000
30
0.000000
0
SEQEND
0
ENDSEC
0
EOF
