M48
INCH,TZ
VER,1
FMAT,2
DETECT,ON
ATC,ON
T1C0.03500
T2C0.04750
T3C0.03543
T4C0.02333
T5C0.04000
T6C0.02362
T7C0.05167
T8C0.20000
%
T1
X3.17700Y1.92200
X3.47700
X3.17700Y1.72200
X3.47700
X0.41979Y2.55054
X0.71979Y2.85054
Y2.65054
Y2.75054
Y2.95054
Y3.05054
Y3.15054
X0.41979
Y2.85054
Y2.65054
Y2.75054
Y2.95054
Y3.05054
X0.71979Y2.55054
X2.01134Y1.19101
X1.71134Y0.89101
Y1.09101
Y0.99101
Y0.79101
Y0.69101
Y0.59101
X2.01134
Y0.89101
Y1.09101
Y0.99101
Y0.79101
Y0.69101
X1.71134Y1.19101
X0.98587Y3.29700
X1.28587Y2.99700
X1.08587
X1.18587
X1.38587
X1.48587
X1.58587
Y3.29700
X1.28587
X1.08587
X1.18587
X1.38587
X1.48587
X0.98587Y2.99700
X0.96500Y2.83800
X1.16500Y2.53800
X1.06500
X1.26500
X1.46500
X1.36500
X1.56500
X1.66500
X1.56500Y2.83800
X1.26500
X1.16500
X1.06500
X1.46500
X1.36500
X1.66500
X0.96500Y2.53800
X0.33300Y1.01700
X0.23300
X1.35646Y0.83526
Y0.73526
X2.14100Y3.33500
X1.84100Y3.03500
Y3.23500
Y3.13500
Y2.93500
Y2.83500
Y2.73500
X2.14100
Y3.03500
Y3.23500
Y3.13500
Y2.93500
Y2.83500
X1.84100Y3.33500
X2.27235Y2.67212
X2.57235Y2.87212
Y2.77212
Y2.97212
Y3.17212
Y3.07212
Y3.27212
Y3.37212
X2.27235Y3.27212
Y2.97212
Y2.87212
Y2.77212
Y3.17212
Y3.07212
Y3.37212
X2.57235Y2.67212
X2.99604Y3.37212
X2.69604Y3.17212
Y3.27212
Y3.07212
Y2.87212
Y2.97212
Y2.77212
Y2.67212
X2.99604Y2.77212
Y3.07212
Y3.17212
Y3.27212
Y2.87212
Y2.97212
Y2.67212
X2.69604Y3.37212
X3.44800Y3.32100
X3.14800Y3.02100
Y3.22100
Y3.12100
Y2.92100
Y2.82100
Y2.72100
X3.44800
Y3.02100
Y3.22100
Y3.12100
Y2.92100
Y2.82100
X3.14800Y3.32100
X0.94800Y2.33100
X1.14800Y2.03100
X1.04800
X1.24800
X1.44800
X1.34800
X1.54800
X1.64800
X1.54800Y2.33100
X1.24800
X1.14800
X1.04800
X1.44800
X1.34800
X1.64800
X0.94800Y2.03100
X0.16000Y2.02900
Y2.32900
X0.46000Y2.02900
X0.26000
X0.36000
X0.56000
X0.66000
X0.76000
Y2.32900
X0.46000
X0.26000
X0.36000
X0.56000
X0.66000
X1.36248Y1.79990
X1.06248Y1.59990
Y1.69990
Y1.49990
Y1.29990
Y1.39990
Y1.19990
Y1.09990
X1.36248Y1.19990
Y1.49990
Y1.59990
Y1.69990
Y1.29990
Y1.39990
Y1.09990
X1.06248Y1.79990
X0.62879Y1.17903
X0.92879Y1.47903
Y1.27903
Y1.37903
Y1.57903
Y1.67903
Y1.77903
X0.62879
Y1.47903
Y1.27903
Y1.37903
Y1.57903
Y1.67903
X0.92879Y1.17903
X2.59698Y0.69503
Y0.99503
X2.69698Y0.69503
X2.89698
X2.79698
X2.89698Y0.99503
X2.69698
X2.79698
X1.76800Y2.04700
Y2.24700
X2.06800
X1.76800Y2.14700
Y1.94700
X2.06800
Y2.14700
Y2.04700
T2
X3.17700Y1.62200
X3.47700Y2.22200
T3
X3.04446Y0.56596
X3.55628
X2.12618Y0.53858
X2.63799
X2.14041Y1.18168
Y0.66987
X0.10700Y1.93781
Y1.42600
X0.57463Y0.92519
X1.08644
X0.18046Y0.64652
X0.69227
X2.97959Y1.99865
Y2.51046
X2.30000Y2.27900
X2.81181
X2.16300Y2.51081
Y1.99900
X2.30419Y2.42500
X2.81600
X2.29219Y2.11600
X2.80400
X3.85538Y0.74538
Y1.25719
T4
X1.44100Y0.22100
Y0.28767
X2.36000Y0.22100
Y0.28767
T5
X1.99000Y1.74800
Y1.64800
X2.04000Y1.69800
T6
X2.25000Y0.52500
X1.82500Y1.80000
X1.67500Y0.42500
T7
X3.36800Y0.78900
Y1.08067
T8
X0.22300Y0.22300
X3.77700
M30
